<svg width="32" height="32" viewBox="0 0 32 32" fill="none" xmlns="http://www.w3.org/2000/svg">
  <rect width="32" height="32" rx="6" fill="#E61610"/>
  <rect x="16" y="0" width="16" height="32" rx="0" fill="#0B4FA2"/>
  <path d="M9 8C10.6569 8 12 9.34315 12 11V21C12 22.6569 10.6569 24 9 24C7.34315 24 6 22.6569 6 21V11C6 9.34315 7.34315 8 9 8Z" fill="white"/>
  <path d="M22 9C22 8.44772 22.4477 8 23 8C23.5523 8 24 8.44772 24 9V23C24 23.5523 23.5523 24 23 24C22.4477 24 22 23.5523 22 23V9Z" fill="white"/>
  <path d="M19 12.5C19 11.6716 19.6716 11 20.5 11C21.3284 11 22 11.6716 22 12.5V19.5C22 20.3284 21.3284 21 20.5 21C19.6716 21 19 20.3284 19 19.5V12.5Z" fill="white"/>
  <path d="M16 8C16.5523 8 17 8.44772 17 9V23C17 23.5523 16.5523 24 16 24C15.4477 24 15 23.5523 15 23V9C15 8.44772 15.4477 8 16 8Z" fill="white"/>
</svg> 